<svg class="railroad-diagram" style="background:transparent" width="198.5" height="92" viewBox="0 0 198.5 92">
<g transform="translate(.5 .5)">
<g>
<path d="M20 21v20m10 -20v20m-10 -10h20" stroke-width="2" stroke="rgba(1, 1, 1, 0.8)" fill="none"></path>
</g>
<path d="M40 31h10" stroke-width="2" stroke="rgba(1, 1, 1, 0.8)" fill="none"></path>
<g>
<path d="M50 31h0" stroke-width="2" stroke="rgba(1, 1, 1, 0.8)" fill="none"></path>
<path d="M148.5 31h0" stroke-width="2" stroke="rgba(1, 1, 1, 0.8)" fill="none"></path>
<path d="M80 31h10" stroke-width="2" stroke="rgba(1, 1, 1, 0.8)" fill="none"></path>
<g class="terminal">
<path d="M90 31h0" stroke-width="2" stroke="rgba(1, 1, 1, 0.8)" fill="none"></path>
<path d="M118.5 31h0" stroke-width="2" stroke="rgba(1, 1, 1, 0.8)" fill="none"></path>
<rect x="90" y="20" width="28.5" height="22" rx="10" ry="10" stroke-width="1.5" stroke="black" fill="#ffffff"></rect>
<text x="104.25" y="35" font="bold 14px monospace" text-anchor="middle" font-family="Inconsolata, monospace" fill="black">a</text>
</g>
<path d="M118.5 31h10" stroke-width="2" stroke="rgba(1, 1, 1, 0.8)" fill="none"></path>
<path d="M80 31v20a10 10 0 0 0 10 10" stroke-width="2" stroke="rgba(1, 1, 1, 0.8)" fill="none"></path>
<g class="terminal">
<path d="M90 61h0" stroke-width="2" stroke="rgba(1, 1, 1, 0.8)" fill="none"></path>
<path d="M118.5 61h0" stroke-width="2" stroke="rgba(1, 1, 1, 0.8)" fill="none"></path>
<rect x="90" y="50" width="28.5" height="22" rx="10" ry="10" stroke-width="1.5" stroke="black" fill="#ffffff"></rect>
<text x="104.25" y="65" font="bold 14px monospace" text-anchor="middle" font-family="Inconsolata, monospace" fill="black">b</text>
</g>
<path d="M118.5 61a10 10 0 0 0 10 -10v-20" stroke-width="2" stroke="rgba(1, 1, 1, 0.8)" fill="none"></path>
<g>
<title>take all branches, once each, in any order</title>
<path d="M 80 21 h -26 a 4 4 0 0 0 -4 4 v 12 a 4 4 0 0 0 4 4 h 26 z" stroke-width="1.5" stroke="black" fill="white"></path>
<text x="65" y="35" font-size="12px" font="bold 14px monospace" text-anchor="middle" fill="black">all</text>
<path d="M 128.5 21 h 16 a 4 4 0 0 1 4 4 v 12 a 4 4 0 0 1 -4 4 h -16 z" stroke-width="1.5" stroke="black" fill="white"></path>
<path d="M 135.5 29 a 4 4 0 1 0 6 -1 m 2.75 -1 h -4 v 4 m 0 -3 h 2" stroke-width="1.75" stroke="rgba(1, 1, 1, 0.8)" fill="none"></path>
</g>
</g>
<path d="M148.5 31h10" stroke-width="2" stroke="rgba(1, 1, 1, 0.8)" fill="none"></path>
<path stroke-width="2" stroke="rgba(1, 1, 1, 0.8)" fill="none" d="M 158.5 31 h 20 m -10 -10 v 20 m 10 -20 v 20"></path>
</g>
</svg>
